<?xml version="1.0" encoding="utf-8"?>
<!-- Generator: Adobe Illustrator 22.1.0, SVG Export Plug-In . SVG Version: 6.00 Build 0)  -->
<svg version="1.1" id="Layer_1" xmlns="http://www.w3.org/2000/svg" xmlns:xlink="http://www.w3.org/1999/xlink" x="0px" y="0px"
	 width="256px" height="256px" viewBox="0 0 256 256" style="enable-background:new 0 0 256 256;" xml:space="preserve">
<style type="text/css">
	.st0{fill:#1E1E1E;}
	.st1{fill:#FFFFFF;}
</style>
<rect x="-0.1" y="-0.1" class="st0" width="256" height="256"/>
<path class="st1" d="M1,255"/>
<path class="st1" d="M255,1"/>
<g>
	<path class="st1" d="M1,255"/>
</g>
<g>
	<path class="st1" d="M255,1"/>
</g>
<g id="a_00000083802473975808837940000007605278958555224740_" focusable="false">
	<path class="st1" d="M165.3,80H90.7C84.8,80,80,84.8,80,90.7v74.7c0,5.9,4.8,10.7,10.7,10.7h74.7c5.9,0,10.7-4.8,10.7-10.7V90.7
		C176,84.8,171.2,80,165.3,80z M90.7,88h74.7c1.6,0,2.7,1.1,2.7,2.7v18.7H88V90.7C88,89.1,89.1,88,90.7,88z M88,138.7v-21.3h80v21.3
		H88z M90.7,168c-1.6,0-2.7-1.1-2.7-2.7v-18.7h80v18.7c0,1.6-1.1,2.7-2.7,2.7"/>
</g>
</svg>
